<?xml version="1.0" encoding="utf-8"?>
<!-- Generator: Adobe Illustrator 17.0.0, SVG Export Plug-In . SVG Version: 6.00 Build 0)  -->
<!DOCTYPE svg PUBLIC "-//W3C//DTD SVG 1.1//EN" "http://www.w3.org/Graphics/SVG/1.1/DTD/svg11.dtd">
<svg version="1.1" id="Layer_1" xmlns="http://www.w3.org/2000/svg" xmlns:xlink="http://www.w3.org/1999/xlink" x="0px" y="0px"
	 width="245.593px" height="33.333px" viewBox="0 0 245.593 33.333" enable-background="new 0 0 245.593 33.333"
	 xml:space="preserve">
<g>
	<path fill="#FFFFFF" d="M3.679,3.391c0-0.112,0.056-0.212,0.168-0.301c0.112-0.089,0.224-0.133,0.336-0.133l0.294,0.126
		l9.694,12.061l9.624-12.019v0.014c0.028-0.047,0.091-0.089,0.189-0.126s0.166-0.056,0.203-0.056c0.112,0,0.217,0.044,0.315,0.133
		s0.147,0.189,0.147,0.301c0,0.037-0.142,0.243-0.427,0.616c-0.285,0.374-0.658,0.859-1.121,1.457s-0.995,1.27-1.597,2.017
		c-0.602,0.747-1.219,1.513-1.849,2.297c-0.63,0.784-1.251,1.557-1.863,2.318s-1.165,1.445-1.66,2.052l-1.513,1.877v12.397
		c0,0.149-0.044,0.271-0.133,0.364s-0.203,0.14-0.343,0.14c-0.187,0-0.308-0.047-0.364-0.14c-0.056-0.093-0.084-0.215-0.084-0.364
		V16.026l-2.479-3.096c-0.514-0.635-1.055-1.305-1.625-2.01c-0.57-0.705-1.132-1.405-1.688-2.101S6.814,7.456,6.305,6.816
		s-0.96-1.209-1.352-1.709c-0.392-0.5-0.703-0.901-0.932-1.205C3.793,3.599,3.679,3.428,3.679,3.391z"/>
	<path fill="#FFFFFF" d="M19.844,21.77v-4.09c0-0.149,0.047-0.268,0.142-0.357c0.095-0.089,0.212-0.133,0.355-0.133
		c0.19,0,0.308,0.063,0.356,0.189c0.048,0.126,0.071,0.24,0.071,0.343v3.81c0,0.486,0.047,0.932,0.14,1.338s0.246,0.759,0.461,1.058
		c0.214,0.299,0.497,0.532,0.852,0.7c0.354,0.168,0.791,0.252,1.313,0.252c0.531,0,0.971-0.084,1.32-0.252s0.632-0.402,0.845-0.7
		c0.215-0.299,0.365-0.651,0.454-1.058c0.089-0.406,0.133-0.852,0.133-1.338v-3.852c0-0.149,0.053-0.268,0.159-0.357
		c0.105-0.089,0.223-0.133,0.351-0.133c0.184,0,0.3,0.063,0.346,0.189c0.046,0.126,0.069,0.24,0.069,0.343v4.048
		c0,0.598-0.075,1.144-0.223,1.639c-0.148,0.495-0.374,0.918-0.676,1.268c-0.301,0.35-0.682,0.623-1.142,0.819
		s-1.005,0.294-1.637,0.294c-0.636,0-1.186-0.098-1.649-0.294c-0.462-0.196-0.844-0.469-1.143-0.819
		c-0.3-0.35-0.524-0.773-0.675-1.268C19.919,22.914,19.844,22.367,19.844,21.77z"/>
	<path fill="#FFFFFF" d="M30.981,25.174v-7.494c0-0.149,0.044-0.268,0.135-0.357c0.09-0.089,0.21-0.133,0.362-0.133
		c0.19,0,0.315,0.119,0.377,0.357c0.062,0.238,0.092,0.516,0.092,0.833c0,0.112-0.002,0.224-0.007,0.336s-0.007,0.219-0.007,0.322
		c0.242-0.196,0.508-0.402,0.796-0.616s0.588-0.411,0.901-0.588c0.312-0.177,0.623-0.325,0.935-0.441
		c0.313-0.117,0.618-0.175,0.915-0.175c0.639,0,1.136,0.126,1.492,0.378c0.357,0.252,0.573,0.672,0.648,1.261
		c0.27-0.196,0.557-0.395,0.859-0.595s0.614-0.381,0.936-0.539c0.321-0.159,0.649-0.287,0.984-0.385s0.676-0.147,1.02-0.147
		c0.393,0,0.72,0.049,0.978,0.147c0.258,0.098,0.465,0.24,0.62,0.427c0.155,0.187,0.265,0.42,0.33,0.7
		c0.067,0.28,0.099,0.602,0.099,0.967v5.743c0,0.14-0.046,0.254-0.135,0.343c-0.09,0.089-0.205,0.133-0.348,0.133
		c-0.19,0-0.311-0.04-0.363-0.119c-0.053-0.079-0.078-0.198-0.078-0.357v-5.085c0-0.233-0.007-0.467-0.021-0.7
		c-0.014-0.233-0.056-0.446-0.126-0.637c-0.07-0.191-0.181-0.348-0.335-0.469c-0.153-0.121-0.37-0.182-0.649-0.182
		c-0.307,0-0.629,0.058-0.964,0.175c-0.335,0.117-0.668,0.266-0.998,0.448c-0.332,0.182-0.65,0.381-0.957,0.595
		s-0.583,0.42-0.824,0.616v5.239c0,0.14-0.046,0.254-0.135,0.343c-0.09,0.089-0.205,0.133-0.348,0.133
		c-0.19,0-0.311-0.04-0.363-0.119c-0.053-0.079-0.078-0.198-0.078-0.357v-4.777c0-0.252-0.007-0.514-0.021-0.784
		c-0.014-0.271-0.058-0.518-0.133-0.742c-0.075-0.224-0.195-0.409-0.363-0.553c-0.167-0.145-0.41-0.217-0.726-0.217
		c-0.27,0-0.568,0.075-0.894,0.224c-0.326,0.149-0.651,0.332-0.977,0.546c-0.327,0.215-0.639,0.441-0.936,0.679
		c-0.298,0.238-0.554,0.451-0.768,0.637v4.987c0,0.14-0.046,0.254-0.135,0.343c-0.09,0.089-0.205,0.133-0.348,0.133
		c-0.19,0-0.311-0.04-0.363-0.119C31.006,25.451,30.981,25.332,30.981,25.174z"/>
	<path fill="#FFFFFF" d="M47.384,25.174v-7.494c0-0.149,0.044-0.268,0.135-0.357c0.09-0.089,0.21-0.133,0.362-0.133
		c0.19,0,0.315,0.119,0.377,0.357c0.062,0.238,0.092,0.516,0.092,0.833c0,0.112-0.002,0.224-0.007,0.336s-0.007,0.219-0.007,0.322
		c0.242-0.196,0.508-0.402,0.796-0.616s0.588-0.411,0.901-0.588c0.312-0.177,0.623-0.325,0.935-0.441
		c0.313-0.117,0.618-0.175,0.915-0.175c0.639,0,1.136,0.126,1.492,0.378c0.357,0.252,0.573,0.672,0.648,1.261
		c0.27-0.196,0.557-0.395,0.859-0.595s0.614-0.381,0.936-0.539c0.321-0.159,0.649-0.287,0.984-0.385s0.676-0.147,1.02-0.147
		c0.393,0,0.72,0.049,0.978,0.147c0.258,0.098,0.465,0.24,0.62,0.427c0.155,0.187,0.265,0.42,0.33,0.7
		c0.067,0.28,0.099,0.602,0.099,0.967v5.743c0,0.14-0.046,0.254-0.135,0.343c-0.09,0.089-0.205,0.133-0.348,0.133
		c-0.19,0-0.311-0.04-0.363-0.119c-0.053-0.079-0.078-0.198-0.078-0.357v-5.085c0-0.233-0.007-0.467-0.021-0.7
		c-0.014-0.233-0.056-0.446-0.126-0.637c-0.07-0.191-0.181-0.348-0.335-0.469c-0.153-0.121-0.37-0.182-0.649-0.182
		c-0.307,0-0.629,0.058-0.964,0.175c-0.335,0.117-0.668,0.266-0.998,0.448c-0.332,0.182-0.65,0.381-0.957,0.595
		s-0.583,0.42-0.824,0.616v5.239c0,0.14-0.046,0.254-0.135,0.343c-0.09,0.089-0.205,0.133-0.348,0.133
		c-0.19,0-0.311-0.04-0.363-0.119c-0.053-0.079-0.078-0.198-0.078-0.357v-4.777c0-0.252-0.007-0.514-0.021-0.784
		c-0.014-0.271-0.058-0.518-0.133-0.742c-0.075-0.224-0.195-0.409-0.363-0.553c-0.167-0.145-0.41-0.217-0.726-0.217
		c-0.27,0-0.568,0.075-0.894,0.224s-0.651,0.332-0.977,0.546c-0.327,0.215-0.639,0.441-0.936,0.679
		c-0.298,0.238-0.554,0.451-0.768,0.637v4.987c0,0.14-0.046,0.254-0.135,0.343c-0.09,0.089-0.205,0.133-0.348,0.133
		c-0.19,0-0.311-0.04-0.363-0.119C47.41,25.451,47.384,25.332,47.384,25.174z"/>
	<path fill="#FFFFFF" d="M63.605,21.742v-4.062c0-0.149,0.047-0.268,0.142-0.357c0.095-0.089,0.212-0.133,0.355-0.133
		c0.19,0,0.308,0.044,0.356,0.133c0.048,0.089,0.071,0.208,0.071,0.357v4.09c0,0.355,0.026,0.717,0.077,1.086
		c0.051,0.369,0.148,0.705,0.293,1.009s0.347,0.553,0.607,0.749c0.261,0.196,0.601,0.294,1.02,0.294
		c0.494,0,0.968-0.105,1.424-0.315c0.456-0.21,0.894-0.446,1.313-0.707v-6.206c0-0.131,0.047-0.245,0.14-0.343
		c0.093-0.098,0.205-0.147,0.336-0.147c0.187,0,0.308,0.042,0.364,0.126c0.056,0.084,0.084,0.205,0.084,0.364v5.617
		c0.095-0.075,0.203-0.14,0.327-0.196c0.123-0.056,0.256-0.103,0.397-0.14c0.076,0.047,0.147,0.107,0.214,0.182
		c0.067,0.075,0.099,0.159,0.099,0.252c0,0.065-0.037,0.14-0.113,0.224c-0.076,0.084-0.168,0.168-0.277,0.252
		c-0.11,0.084-0.223,0.163-0.341,0.238c-0.119,0.075-0.221,0.135-0.306,0.182v4.314c0,0.71-0.205,1.268-0.615,1.674
		s-0.965,0.609-1.665,0.609c-0.13,0-0.237-0.028-0.321-0.084c-0.084-0.056-0.126-0.168-0.126-0.336c0-0.205,0.07-0.329,0.21-0.371
		c0.14-0.042,0.274-0.054,0.405-0.035h0.07c0.27,0,0.482-0.068,0.635-0.203c0.154-0.135,0.265-0.308,0.335-0.518
		c0.07-0.21,0.112-0.439,0.126-0.686c0.014-0.247,0.021-0.483,0.021-0.707v-3.096c-0.419,0.252-0.854,0.472-1.306,0.658
		c-0.452,0.187-0.928,0.28-1.431,0.28c-0.619,0-1.119-0.117-1.504-0.35c-0.384-0.233-0.681-0.542-0.892-0.925
		c-0.21-0.383-0.351-0.815-0.421-1.296C63.64,22.739,63.605,22.246,63.605,21.742z"/>
	<path fill="#FFFFFF" d="M80.893,15.872c0-1.195,0.156-2.351,0.469-3.467c0.313-1.116,0.752-2.157,1.317-3.124
		c0.565-0.967,1.247-1.847,2.045-2.641c0.798-0.794,1.681-1.473,2.648-2.038c0.967-0.565,2.005-1.004,3.117-1.317
		c1.111-0.313,2.265-0.469,3.46-0.469c0.644,0,1.328,0.063,2.052,0.189c0.724,0.126,1.436,0.308,2.136,0.546
		c0.7,0.238,1.373,0.532,2.017,0.883c0.644,0.35,1.214,0.749,1.709,1.198c0.065,0.075,0.131,0.159,0.196,0.252
		c0.065,0.093,0.117,0.191,0.154,0.294c0,0.112-0.037,0.212-0.112,0.301s-0.177,0.142-0.308,0.161
		c-0.121-0.056-0.208-0.1-0.259-0.133c-0.051-0.033-0.096-0.063-0.133-0.091c-0.616-0.448-1.205-0.843-1.765-1.184
		c-0.56-0.341-1.132-0.623-1.716-0.847c-0.584-0.224-1.195-0.392-1.835-0.504c-0.64-0.112-1.352-0.168-2.136-0.168
		c-1.121,0-2.199,0.145-3.236,0.434s-2.003,0.698-2.9,1.226c-0.897,0.528-1.714,1.16-2.451,1.898
		c-0.738,0.738-1.368,1.557-1.891,2.458c-0.523,0.901-0.929,1.87-1.219,2.907c-0.289,1.037-0.434,2.115-0.434,3.236
		c0,1.093,0.147,2.153,0.441,3.18c0.294,1.027,0.707,1.989,1.24,2.886c0.532,0.897,1.172,1.721,1.919,2.472
		c0.747,0.752,1.569,1.394,2.465,1.926c0.897,0.532,1.858,0.948,2.886,1.247s2.087,0.448,3.18,0.448c1.214,0,2.363-0.163,3.446-0.49
		s2.08-0.796,2.991-1.408c0.911-0.612,1.73-1.349,2.458-2.213c0.728-0.864,1.354-1.828,1.877-2.893H90.488
		c-0.131,0-0.245-0.042-0.343-0.126c-0.098-0.084-0.147-0.191-0.147-0.322c0-0.187,0.042-0.308,0.126-0.364
		c0.084-0.056,0.205-0.084,0.364-0.084h14.821c0.149,0,0.275,0.033,0.378,0.098c0.103,0.065,0.154,0.191,0.154,0.378
		c0,0.159-0.061,0.362-0.182,0.609c-0.121,0.247-0.229,0.465-0.322,0.651l-0.112,0.196l0.014-0.014
		c-0.579,1.055-1.265,2.008-2.059,2.858c-0.794,0.85-1.672,1.571-2.634,2.164c-0.962,0.593-1.998,1.051-3.11,1.373
		c-1.111,0.322-2.274,0.483-3.488,0.483c-1.177,0-2.316-0.159-3.418-0.476c-1.102-0.318-2.136-0.763-3.103-1.338
		c-0.967-0.574-1.851-1.261-2.655-2.059c-0.803-0.798-1.492-1.681-2.066-2.648c-0.574-0.967-1.02-2.003-1.338-3.11
		C81.051,18.191,80.893,17.049,80.893,15.872z"/>
	<path fill="#FFFFFF" d="M106.499,18.884c0-0.168,0.11-0.353,0.329-0.553c0.219-0.201,0.481-0.385,0.784-0.553
		c0.304-0.168,0.605-0.308,0.904-0.42c0.299-0.112,0.528-0.168,0.686-0.168c0.364,0,0.651,0.07,0.859,0.21
		c0.208,0.14,0.367,0.318,0.474,0.532c0.11,0.215,0.18,0.46,0.215,0.735c0.033,0.275,0.049,0.544,0.049,0.805
		c0.252-0.243,0.523-0.497,0.817-0.763c0.294-0.266,0.605-0.511,0.936-0.735c0.329-0.224,0.668-0.411,1.013-0.56
		c0.343-0.149,0.689-0.224,1.034-0.224c0.313,0,0.6,0.054,0.859,0.161s0.483,0.254,0.668,0.441c0.184,0.187,0.327,0.413,0.423,0.679
		c0.098,0.266,0.147,0.558,0.147,0.876c0,0.224-0.044,0.472-0.133,0.742c-0.086,0.271-0.208,0.528-0.36,0.77
		c-0.152,0.243-0.341,0.446-0.563,0.609c-0.222,0.163-0.462,0.245-0.721,0.245c-0.131,0-0.224-0.04-0.28-0.119
		c-0.056-0.079-0.082-0.17-0.082-0.273c0-0.112,0.035-0.194,0.11-0.245c0.075-0.051,0.168-0.114,0.28-0.189
		c0.084-0.056,0.177-0.121,0.28-0.196c0.103-0.075,0.198-0.168,0.285-0.28c0.089-0.112,0.163-0.243,0.224-0.392
		c0.061-0.149,0.091-0.327,0.091-0.532c0-0.43-0.112-0.768-0.336-1.016c-0.222-0.247-0.553-0.371-0.99-0.371
		c-0.28,0-0.593,0.096-0.936,0.287c-0.346,0.191-0.689,0.423-1.034,0.693s-0.668,0.551-0.971,0.84
		c-0.304,0.29-0.556,0.537-0.761,0.742v4.511c0,0.14-0.049,0.254-0.149,0.343c-0.1,0.089-0.215,0.133-0.348,0.133
		c-0.189,0-0.308-0.044-0.357-0.133c-0.047-0.089-0.07-0.203-0.07-0.343V19.57c0-0.159-0.005-0.325-0.014-0.497
		s-0.037-0.332-0.084-0.476c-0.047-0.145-0.121-0.264-0.224-0.357c-0.103-0.093-0.247-0.14-0.434-0.14
		c-0.131,0-0.266,0.023-0.406,0.07c-0.14,0.047-0.278,0.107-0.413,0.182c-0.135,0.075-0.268,0.156-0.399,0.245
		c-0.131,0.089-0.247,0.17-0.35,0.245c-0.299,0.224-0.509,0.336-0.63,0.336c-0.103,0-0.191-0.033-0.266-0.098
		C106.579,19.015,106.527,18.949,106.499,18.884z"/>
	<path fill="#FFFFFF" d="M118.644,11.908c0-0.224,0.082-0.423,0.245-0.595c0.163-0.173,0.355-0.259,0.574-0.259
		c0.236,0,0.437,0.084,0.607,0.252c0.17,0.168,0.254,0.369,0.254,0.602c0,0.224-0.084,0.42-0.254,0.588
		c-0.17,0.168-0.371,0.252-0.607,0.252c-0.21,0-0.399-0.086-0.567-0.259C118.728,12.317,118.644,12.123,118.644,11.908z
		 M119.009,25.174v-7.494c0-0.131,0.044-0.245,0.135-0.343c0.089-0.098,0.205-0.147,0.348-0.147c0.17,0,0.287,0.058,0.348,0.175
		c0.063,0.117,0.093,0.236,0.093,0.357v7.452c0,0.131-0.047,0.243-0.142,0.336c-0.096,0.093-0.208,0.14-0.341,0.14
		c-0.18,0-0.299-0.044-0.355-0.133C119.037,25.428,119.009,25.314,119.009,25.174z"/>
	<path fill="#FFFFFF" d="M124.024,25.174V3.741c0-0.131,0.044-0.245,0.135-0.343c0.089-0.098,0.205-0.147,0.348-0.147
		c0.17,0,0.287,0.058,0.348,0.175c0.063,0.117,0.093,0.24,0.093,0.371v21.376c0,0.131-0.047,0.243-0.142,0.336
		c-0.096,0.093-0.208,0.14-0.341,0.14c-0.18,0-0.299-0.044-0.355-0.133C124.052,25.428,124.024,25.314,124.024,25.174z"/>
	<path fill="#FFFFFF" d="M129.01,25.174V3.741c0-0.131,0.044-0.245,0.135-0.343c0.089-0.098,0.205-0.147,0.348-0.147
		c0.17,0,0.287,0.058,0.348,0.175c0.063,0.117,0.093,0.24,0.093,0.371v21.376c0,0.131-0.047,0.243-0.142,0.336
		c-0.096,0.093-0.208,0.14-0.341,0.14c-0.18,0-0.299-0.044-0.355-0.133C129.038,25.428,129.01,25.314,129.01,25.174z"/>
	<path fill="#FFFFFF" d="M133.423,20.229c0-0.504,0.098-0.946,0.294-1.324c0.196-0.378,0.46-0.693,0.791-0.946
		s0.71-0.444,1.135-0.574c0.423-0.131,0.858-0.196,1.306-0.196c0.093,0,0.252,0.016,0.481,0.049c0.229,0.033,0.46,0.086,0.696,0.161
		c0.236,0.075,0.446,0.17,0.633,0.287c0.187,0.117,0.28,0.259,0.28,0.427c0,0.131-0.04,0.236-0.119,0.315
		c-0.079,0.079-0.184,0.119-0.315,0.119c-0.037,0-0.1-0.014-0.189-0.042c-0.089-0.028-0.17-0.061-0.245-0.098
		c-0.182-0.075-0.397-0.149-0.644-0.224c-0.247-0.075-0.486-0.112-0.717-0.112c-0.32,0-0.627,0.047-0.928,0.14
		c-0.299,0.093-0.567,0.229-0.801,0.406c-0.236,0.177-0.425,0.397-0.572,0.658c-0.145,0.261-0.217,0.56-0.217,0.897
		c0,0.224,0.049,0.413,0.147,0.567s0.233,0.29,0.402,0.406c0.168,0.117,0.36,0.219,0.57,0.308c0.212,0.089,0.43,0.17,0.656,0.245
		c0.26,0.093,0.519,0.191,0.772,0.294c0.254,0.103,0.479,0.229,0.677,0.378c0.198,0.149,0.357,0.332,0.476,0.546
		s0.18,0.481,0.18,0.798c0,0.346-0.068,0.647-0.203,0.904s-0.315,0.472-0.539,0.644c-0.224,0.173-0.481,0.304-0.77,0.392
		c-0.29,0.089-0.587,0.133-0.895,0.133c-0.093,0-0.252-0.014-0.476-0.042c-0.224-0.028-0.451-0.075-0.679-0.14
		c-0.229-0.065-0.43-0.149-0.602-0.252c-0.173-0.103-0.259-0.233-0.259-0.392c0-0.224,0.065-0.355,0.198-0.392
		c0.131-0.037,0.268-0.056,0.409-0.056c0.009,0,0.03,0.005,0.063,0.014s0.058,0.023,0.079,0.042l0.042,0.042
		c0.395,0.177,0.819,0.266,1.27,0.266c0.18,0,0.355-0.019,0.529-0.056c0.173-0.037,0.327-0.1,0.458-0.189
		c0.133-0.089,0.24-0.201,0.327-0.336c0.084-0.135,0.126-0.301,0.126-0.497c0-0.187-0.044-0.348-0.133-0.483
		c-0.091-0.135-0.21-0.254-0.36-0.357s-0.322-0.191-0.514-0.266c-0.19-0.075-0.391-0.149-0.597-0.224
		c-0.273-0.103-0.542-0.21-0.805-0.322c-0.266-0.112-0.502-0.252-0.712-0.42c-0.208-0.168-0.378-0.371-0.507-0.609
		C133.488,20.88,133.423,20.584,133.423,20.229z"/>
	<path fill="#FFFFFF" d="M148.508,20.817c0-0.913,0.145-1.777,0.432-2.591c0.289-0.815,0.689-1.553,1.2-2.213
		c0.511-0.661,1.121-1.235,1.828-1.718c0.705-0.483,1.483-0.861,2.328-1.132c-0.556-0.175-1.076-0.409-1.557-0.7
		c-0.483-0.29-0.906-0.637-1.268-1.044c-0.362-0.406-0.647-0.873-0.857-1.401c-0.208-0.528-0.313-1.114-0.313-1.758
		c0-0.824,0.175-1.571,0.523-2.237c0.35-0.665,0.808-1.233,1.375-1.702c0.567-0.467,1.214-0.826,1.94-1.074
		c0.726-0.25,1.471-0.374,2.232-0.374c0.796,0,1.583,0.131,2.363,0.392c0.782,0.264,1.462,0.679,2.04,1.251
		c0.047,0.047,0.103,0.119,0.168,0.217s0.098,0.184,0.098,0.259c0,0.124-0.042,0.229-0.126,0.318s-0.182,0.133-0.294,0.133
		c-0.093,0-0.18-0.033-0.259-0.098c-0.079-0.065-0.142-0.121-0.189-0.168h0.014c-0.252-0.245-0.53-0.453-0.833-0.626
		c-0.304-0.175-0.626-0.318-0.962-0.43c-0.336-0.114-0.679-0.196-1.03-0.247s-0.7-0.077-1.046-0.077
		c-0.635,0-1.256,0.103-1.865,0.311c-0.607,0.205-1.149,0.5-1.625,0.878c-0.479,0.381-0.864,0.845-1.158,1.394
		c-0.294,0.549-0.441,1.167-0.441,1.851c0,0.826,0.187,1.522,0.56,2.09c0.374,0.567,0.857,1.027,1.445,1.38
		c0.588,0.353,1.244,0.605,1.97,0.761c0.724,0.154,1.436,0.231,2.139,0.231c0.065,0,0.138,0,0.217,0c0.079,0,0.152,0.014,0.217,0.04
		c0.065,0.028,0.119,0.072,0.161,0.135c0.042,0.063,0.063,0.152,0.063,0.268c0,0.126-0.035,0.224-0.105,0.297
		c-0.07,0.07-0.156,0.124-0.259,0.161c-0.103,0.035-0.215,0.058-0.336,0.068c-0.121,0.007-0.233,0.012-0.336,0.012
		c-0.037,0-0.068,0.002-0.091,0.007c-0.023,0.005-0.049,0.007-0.077,0.007c-0.703,0.065-1.401,0.18-2.097,0.343
		c-0.698,0.163-1.333,0.432-1.907,0.805c-0.502,0.327-0.957,0.71-1.366,1.149s-0.761,0.92-1.058,1.443
		c-0.299,0.523-0.528,1.074-0.691,1.653c-0.161,0.579-0.243,1.167-0.243,1.765c0,0.682,0.093,1.331,0.278,1.947
		c0.187,0.616,0.451,1.193,0.789,1.73c0.339,0.537,0.74,1.025,1.205,1.464c0.465,0.439,0.976,0.815,1.534,1.128
		s1.149,0.553,1.772,0.721c0.621,0.168,1.263,0.252,1.924,0.252c1.009,0,1.959-0.173,2.853-0.518
		c0.892-0.346,1.681-0.829,2.363-1.45c0.682-0.621,1.23-1.356,1.648-2.206c0.416-0.85,0.651-1.779,0.707-2.788
		c-1.037,0-2.071-0.002-3.098-0.007c-1.03-0.005-2.062-0.007-3.1-0.007c-0.149,0-0.271-0.044-0.364-0.133
		c-0.093-0.089-0.14-0.203-0.14-0.343c0-0.187,0.047-0.306,0.14-0.357c0.093-0.051,0.215-0.077,0.364-0.077l6.199-0.014
		c-0.028-0.299-0.072-0.584-0.133-0.854s-0.142-0.551-0.245-0.84c-0.019-0.037-0.042-0.096-0.07-0.175
		c-0.028-0.079-0.042-0.142-0.042-0.189c0-0.149,0.047-0.264,0.14-0.343c0.093-0.079,0.205-0.119,0.336-0.119
		c0.126,0,0.245,0.1,0.355,0.301c0.107,0.201,0.201,0.439,0.278,0.714c0.077,0.275,0.142,0.556,0.196,0.84
		c0.056,0.285,0.091,0.507,0.11,0.665c1.226,0,2.444,0.002,3.661,0.007s2.437,0.007,3.661,0.007c0.261,0,0.565-0.019,0.906-0.056
		s0.665-0.112,0.974-0.224c0.311-0.112,0.57-0.268,0.78-0.469c0.21-0.201,0.315-0.465,0.315-0.791c0-0.159-0.019-0.294-0.058-0.406
		c-0.037-0.112-0.079-0.21-0.121-0.294c-0.044-0.084-0.077-0.161-0.105-0.231c-0.026-0.07-0.037-0.142-0.037-0.217
		c0-0.093,0.026-0.182,0.077-0.266c0.051-0.084,0.142-0.126,0.273-0.126c0.075,0,0.147,0.009,0.217,0.028
		c0.07,0.019,0.133,0.056,0.189,0.112l0.042,0.084c0.149,0.159,0.254,0.371,0.315,0.637c0.061,0.266,0.091,0.493,0.091,0.679
		c0,0.215-0.042,0.418-0.128,0.609c-0.086,0.191-0.196,0.371-0.329,0.539c-0.133,0.168-0.285,0.32-0.458,0.455
		c-0.17,0.135-0.348,0.254-0.528,0.357c0.266,0.131,0.497,0.304,0.698,0.518c0.201,0.215,0.364,0.451,0.493,0.707
		c0.128,0.257,0.226,0.53,0.292,0.819c0.068,0.29,0.1,0.579,0.1,0.869c0,0.121-0.03,0.252-0.093,0.392
		c-0.063,0.14-0.191,0.21-0.383,0.21c-0.117,0-0.205-0.03-0.268-0.091c-0.061-0.061-0.107-0.135-0.135-0.224
		c-0.03-0.089-0.044-0.184-0.044-0.287s0-0.196,0-0.28v-0.098c0-0.355-0.072-0.661-0.217-0.918
		c-0.145-0.257-0.336-0.469-0.574-0.637c-0.24-0.168-0.511-0.292-0.815-0.371s-0.619-0.119-0.948-0.119h-7.84
		c-0.082,1.139-0.355,2.19-0.822,3.152c-0.465,0.962-1.079,1.793-1.837,2.493c-0.761,0.7-1.639,1.247-2.636,1.639
		c-0.997,0.392-2.064,0.588-3.201,0.588c-1.128,0-2.199-0.21-3.215-0.63c-1.016-0.42-1.91-0.997-2.683-1.73
		s-1.387-1.597-1.844-2.591C148.737,23.037,148.508,21.966,148.508,20.817z"/>
	<path fill="#FFFFFF" d="M188.333,28.424V3.475c0-0.131,0.021-0.254,0.063-0.371s0.161-0.175,0.357-0.175
		c0.131,0,0.233,0.035,0.308,0.105c0.075,0.07,0.14,0.142,0.196,0.217l9.357,12.215l9.336-12.159
		c0.065-0.084,0.142-0.168,0.231-0.252s0.198-0.126,0.329-0.126c0.18,0,0.299,0.061,0.355,0.182
		c0.058,0.121,0.086,0.243,0.086,0.364v24.948c0,0.149-0.044,0.271-0.135,0.364c-0.091,0.093-0.21,0.14-0.362,0.14
		c-0.189,0-0.308-0.047-0.357-0.14c-0.047-0.093-0.07-0.215-0.07-0.364V4.736l-8.909,11.585l-0.014,0.028
		c-0.047,0.065-0.112,0.131-0.196,0.196c-0.084,0.065-0.182,0.098-0.294,0.098c-0.14,0-0.236-0.021-0.287-0.063
		c-0.051-0.042-0.1-0.1-0.147-0.175c-0.028-0.056-0.042-0.079-0.042-0.07l-8.881-11.599v23.688c0,0.149-0.047,0.271-0.14,0.364
		c-0.093,0.093-0.215,0.14-0.364,0.14c-0.168,0-0.28-0.051-0.336-0.154S188.333,28.554,188.333,28.424z"/>
	<path fill="#FFFFFF" d="M212.876,21.49c0-0.598,0.112-1.158,0.336-1.681c0.224-0.523,0.532-0.978,0.92-1.366
		c0.388-0.388,0.843-0.693,1.368-0.918c0.523-0.224,1.083-0.336,1.683-0.336c0.595,0,1.156,0.11,1.679,0.329
		c0.525,0.219,0.978,0.523,1.361,0.911c0.381,0.388,0.682,0.843,0.906,1.366c0.222,0.523,0.334,1.088,0.334,1.695
		c0,0.588-0.112,1.144-0.334,1.667c-0.224,0.523-0.528,0.981-0.913,1.373c-0.388,0.392-0.84,0.7-1.361,0.925
		c-0.521,0.224-1.076,0.336-1.672,0.336c-0.588,0-1.146-0.114-1.669-0.343c-0.525-0.229-0.981-0.537-1.368-0.925
		c-0.388-0.388-0.698-0.843-0.927-1.366C212.99,22.634,212.876,22.078,212.876,21.49z M213.8,21.49c0,0.467,0.089,0.906,0.266,1.317
		c0.177,0.411,0.418,0.77,0.726,1.079s0.665,0.551,1.076,0.728c0.411,0.177,0.847,0.266,1.314,0.266
		c0.476,0,0.915-0.089,1.321-0.266c0.404-0.177,0.759-0.42,1.062-0.728c0.303-0.308,0.539-0.668,0.712-1.079
		c0.173-0.411,0.259-0.85,0.259-1.317c0-0.476-0.086-0.922-0.259-1.338c-0.173-0.416-0.406-0.775-0.705-1.079
		c-0.299-0.304-0.654-0.542-1.062-0.714c-0.411-0.173-0.852-0.259-1.328-0.259c-0.467,0-0.904,0.089-1.314,0.266
		c-0.411,0.177-0.768,0.42-1.076,0.728s-0.549,0.668-0.726,1.079C213.889,20.584,213.8,21.023,213.8,21.49z"/>
	<path fill="#FFFFFF" d="M222.275,18.884c0-0.168,0.11-0.353,0.329-0.553c0.219-0.201,0.481-0.385,0.784-0.553
		c0.304-0.168,0.605-0.308,0.904-0.42c0.299-0.112,0.528-0.168,0.686-0.168c0.364,0,0.651,0.07,0.859,0.21
		c0.208,0.14,0.367,0.318,0.474,0.532c0.11,0.215,0.18,0.46,0.215,0.735c0.033,0.275,0.049,0.544,0.049,0.805
		c0.252-0.243,0.523-0.497,0.817-0.763c0.294-0.266,0.605-0.511,0.936-0.735c0.329-0.224,0.668-0.411,1.013-0.56
		c0.343-0.149,0.689-0.224,1.034-0.224c0.313,0,0.6,0.054,0.859,0.161s0.483,0.254,0.668,0.441c0.184,0.187,0.327,0.413,0.423,0.679
		c0.098,0.266,0.147,0.558,0.147,0.876c0,0.224-0.044,0.472-0.133,0.742c-0.086,0.271-0.208,0.528-0.36,0.77
		c-0.152,0.243-0.341,0.446-0.563,0.609c-0.222,0.163-0.462,0.245-0.721,0.245c-0.131,0-0.224-0.04-0.28-0.119
		c-0.056-0.079-0.082-0.17-0.082-0.273c0-0.112,0.035-0.194,0.11-0.245s0.168-0.114,0.28-0.189c0.084-0.056,0.177-0.121,0.28-0.196
		c0.103-0.075,0.198-0.168,0.285-0.28c0.089-0.112,0.163-0.243,0.224-0.392s0.091-0.327,0.091-0.532c0-0.43-0.112-0.768-0.336-1.016
		c-0.222-0.247-0.553-0.371-0.99-0.371c-0.28,0-0.593,0.096-0.936,0.287c-0.346,0.191-0.689,0.423-1.034,0.693
		s-0.668,0.551-0.971,0.84c-0.304,0.29-0.556,0.537-0.761,0.742v4.511c0,0.14-0.049,0.254-0.149,0.343
		c-0.1,0.089-0.215,0.133-0.348,0.133c-0.189,0-0.308-0.044-0.357-0.133c-0.047-0.089-0.07-0.203-0.07-0.343V19.57
		c0-0.159-0.005-0.325-0.014-0.497s-0.037-0.332-0.084-0.476c-0.047-0.145-0.121-0.264-0.224-0.357
		c-0.103-0.093-0.247-0.14-0.434-0.14c-0.131,0-0.266,0.023-0.406,0.07c-0.14,0.047-0.278,0.107-0.413,0.182
		c-0.135,0.075-0.268,0.156-0.399,0.245c-0.131,0.089-0.247,0.17-0.35,0.245c-0.299,0.224-0.509,0.336-0.63,0.336
		c-0.103,0-0.191-0.033-0.266-0.098C222.354,19.015,222.303,18.949,222.275,18.884z"/>
	<path fill="#FFFFFF" d="M233.664,21.462c0-0.626,0.107-1.2,0.322-1.723c0.215-0.523,0.514-0.976,0.897-1.359
		c0.383-0.383,0.836-0.682,1.359-0.897c0.523-0.215,1.097-0.322,1.723-0.322c0.542,0,1.06,0.107,1.555,0.322
		s0.929,0.504,1.303,0.869c0.374,0.364,0.672,0.789,0.897,1.275c0.224,0.486,0.336,1.004,0.336,1.555
		c0,0.205-0.049,0.35-0.147,0.434c-0.098,0.084-0.245,0.126-0.441,0.126h-6.878c0.037,1.009,0.362,1.784,0.974,2.325
		c0.612,0.542,1.422,0.812,2.43,0.812c0.355,0,0.675-0.04,0.96-0.119c0.285-0.079,0.544-0.177,0.777-0.294
		c0.233-0.117,0.437-0.243,0.609-0.378c0.173-0.135,0.325-0.254,0.455-0.357c0.121-0.103,0.226-0.187,0.315-0.252
		s0.184-0.098,0.287-0.098c0.121,0,0.222,0.04,0.301,0.119c0.079,0.079,0.119,0.18,0.119,0.301c0,0.103-0.021,0.191-0.063,0.266
		c-0.042,0.075-0.091,0.14-0.147,0.196c-0.271,0.271-0.544,0.502-0.819,0.693c-0.275,0.191-0.565,0.35-0.868,0.476
		c-0.303,0.126-0.621,0.217-0.953,0.273s-0.689,0.084-1.072,0.084c-0.663,0-1.256-0.105-1.779-0.315s-0.967-0.504-1.328-0.883
		c-0.362-0.378-0.64-0.833-0.833-1.366C233.759,22.694,233.664,22.106,233.664,21.462z M234.616,20.831l6.5,0.014
		c-0.065-0.411-0.191-0.787-0.378-1.128c-0.187-0.341-0.423-0.633-0.707-0.876c-0.285-0.243-0.612-0.432-0.981-0.567
		c-0.369-0.135-0.763-0.203-1.184-0.203s-0.815,0.068-1.184,0.203c-0.369,0.135-0.696,0.325-0.981,0.567
		c-0.285,0.243-0.523,0.532-0.714,0.869C234.796,20.047,234.672,20.42,234.616,20.831z"/>
</g>
</svg>
