<?xml version="1.0" encoding="utf-8"?>
<!-- Generator: Adobe Illustrator 17.0.0, SVG Export Plug-In . SVG Version: 6.00 Build 0)  -->
<!DOCTYPE svg PUBLIC "-//W3C//DTD SVG 1.1//EN" "http://www.w3.org/Graphics/SVG/1.1/DTD/svg11.dtd">
<svg version="1.1" id="Layer_1" xmlns="http://www.w3.org/2000/svg" xmlns:xlink="http://www.w3.org/1999/xlink" x="0px" y="0px"
	 width="245.593px" height="33.333px" viewBox="0 0 245.593 33.333" enable-background="new 0 0 245.593 33.333"
	 xml:space="preserve">
<g>
	<path fill="#FFFFFF" d="M4.321,16.84c0-1.362,0.178-2.679,0.535-3.951c0.356-1.272,0.856-2.458,1.5-3.56
		c0.644-1.101,1.42-2.104,2.331-3.009c0.91-0.904,1.916-1.679,3.017-2.323c1.101-0.644,2.285-1.144,3.552-1.5
		c1.266-0.356,2.58-0.535,3.943-0.535c0.734,0,1.514,0.072,2.338,0.215s1.636,0.351,2.434,0.623
		c0.798,0.271,1.564,0.607,2.299,1.006s1.383,0.854,1.947,1.365c0.075,0.085,0.149,0.181,0.224,0.287
		c0.074,0.107,0.133,0.218,0.176,0.335c0,0.128-0.043,0.242-0.128,0.343s-0.202,0.162-0.351,0.184
		c-0.138-0.064-0.237-0.114-0.295-0.152c-0.059-0.037-0.109-0.072-0.151-0.104c-0.703-0.511-1.373-0.96-2.012-1.349
		c-0.638-0.388-1.29-0.71-1.955-0.966c-0.666-0.255-1.362-0.447-2.091-0.574c-0.729-0.128-1.541-0.192-2.434-0.192
		c-1.277,0-2.506,0.165-3.688,0.495c-1.182,0.33-2.283,0.795-3.305,1.396c-1.021,0.602-1.953,1.323-2.793,2.163
		C8.572,7.88,7.853,8.814,7.258,9.84c-0.596,1.027-1.059,2.131-1.389,3.313c-0.33,1.181-0.495,2.41-0.495,3.687
		c0,1.245,0.168,2.453,0.503,3.623c0.335,1.171,0.806,2.268,1.413,3.289c0.607,1.021,1.335,1.961,2.187,2.817
		s1.788,1.588,2.81,2.194s2.118,1.08,3.288,1.421c1.171,0.341,2.379,0.511,3.624,0.511c1.383,0,2.692-0.187,3.927-0.559
		c1.234-0.372,2.37-0.907,3.408-1.604c1.038-0.696,1.972-1.537,2.802-2.521s1.543-2.083,2.139-3.297H15.255
		c-0.149,0-0.279-0.048-0.391-0.144s-0.168-0.218-0.168-0.367c0-0.213,0.048-0.351,0.144-0.415c0.096-0.063,0.234-0.096,0.415-0.096
		h16.889c0.17,0,0.313,0.037,0.431,0.111c0.117,0.075,0.176,0.219,0.176,0.432c0,0.181-0.069,0.412-0.208,0.694
		c-0.139,0.282-0.261,0.529-0.367,0.742l-0.127,0.224l0.016-0.017c-0.66,1.203-1.442,2.289-2.346,3.257
		c-0.905,0.969-1.905,1.79-3.001,2.466s-2.277,1.197-3.543,1.565c-1.267,0.367-2.592,0.551-3.975,0.551
		c-1.341,0-2.64-0.181-3.895-0.542c-1.256-0.362-2.435-0.871-3.536-1.525c-1.101-0.655-2.11-1.438-3.025-2.347
		c-0.915-0.91-1.7-1.916-2.354-3.018c-0.654-1.102-1.163-2.282-1.524-3.544C4.501,19.482,4.321,18.181,4.321,16.84z"/>
	<path fill="#FFFFFF" d="M36.916,31.144V2.841c0-0.128,0.032-0.231,0.096-0.312c0.063-0.08,0.141-0.138,0.231-0.175
		c0.09-0.037,0.186-0.064,0.287-0.08c0.101-0.016,0.189-0.024,0.264-0.024h9.466c1.479,0,2.854,0.176,4.126,0.527
		c1.271,0.351,2.378,0.897,3.32,1.636c0.941,0.74,1.681,1.684,2.219,2.833c0.537,1.149,0.806,2.528,0.806,4.134
		c0,1.142-0.142,2.159-0.424,3.052s-0.677,1.68-1.184,2.362c-0.507,0.682-1.106,1.26-1.8,1.736c-0.693,0.476-1.453,0.862-2.28,1.158
		s-1.704,0.513-2.632,0.649c-0.928,0.138-1.877,0.206-2.848,0.206c-0.181,0-0.32,0.003-0.416,0.008
		c-0.096,0.006-0.181,0.009-0.255,0.009c-0.075,0-0.157,0-0.248,0c-0.091,0-0.232-0.011-0.423-0.032l0.623,0.401
		c0.5,0.332,1.092,0.728,1.773,1.188c0.682,0.46,1.414,0.952,2.197,1.477s1.593,1.067,2.431,1.629
		c0.838,0.563,1.657,1.116,2.458,1.662c0.8,0.546,1.561,1.064,2.281,1.558c0.72,0.492,1.352,0.928,1.895,1.308
		c0.543,0.38,0.979,0.693,1.309,0.939c0.33,0.247,0.505,0.396,0.527,0.45c0,0.161-0.059,0.303-0.176,0.426s-0.25,0.185-0.399,0.185
		c-0.021,0-0.181-0.097-0.479-0.289s-0.697-0.457-1.197-0.794c-0.5-0.338-1.088-0.729-1.764-1.173s-1.392-0.921-2.148-1.429
		c-0.756-0.508-1.542-1.038-2.356-1.589c-0.815-0.552-1.622-1.095-2.42-1.63s-1.568-1.052-2.309-1.549s-1.414-0.955-2.021-1.372
		l-2.349-1.589h-0.032l0.048,0.041c-0.096-0.061-0.179-0.123-0.248-0.189c-0.069-0.064-0.104-0.168-0.104-0.31
		c0-0.191,0.127-0.317,0.383-0.377c0.256-0.061,0.554-0.091,0.895-0.091c0.224,0,0.456,0.008,0.695,0.022
		c0.239,0.015,0.434,0.027,0.583,0.037c0.074,0.011,0.136,0.016,0.184,0.016s0.083,0,0.104,0c0.33,0,0.682-0.005,1.054-0.015
		c0.373-0.011,0.751-0.023,1.135-0.038c0.383-0.015,0.761-0.039,1.134-0.07c0.373-0.032,0.724-0.075,1.054-0.128
		c1.022-0.202,1.946-0.524,2.772-0.966s1.528-0.995,2.109-1.66c0.581-0.665,1.028-1.437,1.342-2.315
		c0.314-0.878,0.471-1.849,0.471-2.913c0-0.936-0.133-1.825-0.399-2.666c-0.267-0.841-0.65-1.599-1.15-2.275
		s-1.116-1.255-1.845-1.74s-1.563-0.833-2.5-1.046c-0.661-0.149-1.324-0.239-1.989-0.271c-0.666-0.032-1.324-0.048-1.973-0.048
		H37.97v27.808c0,0.17-0.052,0.309-0.155,0.415c-0.104,0.106-0.232,0.159-0.387,0.159c-0.176,0-0.305-0.059-0.388-0.175
		C36.958,31.425,36.916,31.292,36.916,31.144z"/>
	<path fill="#FFFFFF" d="M64.245,31.144V2.681c0-0.16,0.051-0.292,0.154-0.399c0.103-0.106,0.241-0.16,0.413-0.16
		c0.216,0,0.352,0.053,0.406,0.16c0.054,0.106,0.081,0.239,0.081,0.399v28.462c0,0.17-0.052,0.309-0.154,0.415
		c-0.103,0.106-0.235,0.159-0.397,0.159c-0.216,0-0.354-0.053-0.414-0.159C64.275,31.452,64.245,31.314,64.245,31.144z"/>
	<path fill="#FFFFFF" d="M72.115,30.744V2.681c0-0.149,0.052-0.279,0.155-0.391s0.227-0.167,0.372-0.167
		c0.165,0,0.294,0.053,0.387,0.16c0.093,0.106,0.139,0.239,0.139,0.399v27.855h18.468c0.128,0,0.253,0.042,0.376,0.128
		c0.123,0.085,0.184,0.202,0.184,0.351c0,0.213-0.04,0.359-0.12,0.439c-0.08,0.079-0.226,0.119-0.439,0.119H72.993
		c-0.341,0-0.572-0.048-0.694-0.144C72.176,31.335,72.115,31.107,72.115,30.744z"/>
	<path fill="#FFFFFF" d="M96.921,30.744V2.681c0-0.149,0.052-0.279,0.155-0.391s0.227-0.167,0.372-0.167
		c0.165,0,0.294,0.053,0.387,0.16c0.093,0.106,0.139,0.239,0.139,0.399v27.855h18.468c0.128,0,0.253,0.042,0.376,0.128
		c0.122,0.085,0.184,0.202,0.184,0.351c0,0.213-0.04,0.359-0.119,0.439c-0.08,0.079-0.227,0.119-0.439,0.119H97.799
		c-0.341,0-0.572-0.048-0.694-0.144C96.982,31.335,96.921,31.107,96.921,30.744z"/>
	<path fill="#FFFFFF" d="M122.03,31.144V2.681c0-0.16,0.052-0.292,0.154-0.399s0.24-0.16,0.413-0.16c0.216,0,0.352,0.053,0.405,0.16
		s0.081,0.239,0.081,0.399v28.462c0,0.17-0.051,0.309-0.154,0.415c-0.103,0.106-0.234,0.159-0.396,0.159
		c-0.216,0-0.354-0.053-0.413-0.159C122.06,31.452,122.03,31.314,122.03,31.144z"/>
	<path fill="#FFFFFF" d="M128.128,16.84c0-1.362,0.179-2.679,0.535-3.951c0.356-1.272,0.856-2.458,1.5-3.56
		c0.644-1.101,1.42-2.104,2.33-3.009c0.91-0.904,1.916-1.679,3.017-2.323c1.102-0.644,2.286-1.144,3.552-1.5
		c1.267-0.356,2.581-0.535,3.943-0.535c0.872,0,1.742,0.083,2.609,0.248c0.868,0.165,1.714,0.404,2.538,0.718
		c0.825,0.314,1.618,0.697,2.379,1.149s1.471,0.965,2.131,1.54c0.17,0.139,0.304,0.314,0.399,0.527v0.096
		c0,0.117-0.04,0.229-0.12,0.335c-0.079,0.106-0.188,0.16-0.327,0.16c-0.106,0-0.194-0.019-0.264-0.056
		c-0.069-0.037-0.135-0.082-0.199-0.135c-0.383-0.266-0.771-0.538-1.165-0.814c-0.394-0.276-0.796-0.542-1.205-0.798
		c-0.41-0.255-0.825-0.492-1.245-0.71c-0.421-0.218-0.838-0.402-1.253-0.551c-0.66-0.213-1.362-0.38-2.107-0.503
		c-0.745-0.122-1.469-0.184-2.171-0.184c-1.277,0-2.506,0.165-3.688,0.495c-1.182,0.33-2.282,0.795-3.305,1.396
		c-1.021,0.602-1.952,1.323-2.793,2.163c-0.841,0.841-1.56,1.774-2.155,2.801c-0.596,1.027-1.059,2.131-1.389,3.313
		s-0.495,2.41-0.495,3.687c0,1.256,0.168,2.466,0.503,3.632c0.335,1.165,0.807,2.261,1.413,3.288s1.333,1.963,2.179,2.81
		c0.846,0.846,1.782,1.572,2.81,2.179c1.026,0.606,2.123,1.077,3.288,1.413c1.165,0.335,2.376,0.503,3.632,0.503
		c1.713,0,3.299-0.262,4.757-0.782c1.458-0.521,2.831-1.331,4.118-2.427c0.054-0.053,0.152-0.133,0.296-0.239s0.263-0.16,0.358-0.16
		c0.16,0,0.28,0.051,0.359,0.152c0.08,0.101,0.12,0.215,0.12,0.343c0,0.139-0.021,0.239-0.064,0.304
		c-0.042,0.063-0.106,0.138-0.191,0.223v-0.016c-0.542,0.585-1.21,1.104-2.003,1.557s-1.631,0.835-2.515,1.149
		c-0.883,0.314-1.782,0.551-2.697,0.71c-0.915,0.16-1.762,0.239-2.538,0.239c-1.341,0-2.64-0.181-3.895-0.542
		c-1.256-0.362-2.435-0.871-3.536-1.525c-1.102-0.655-2.11-1.438-3.025-2.347c-0.915-0.91-1.7-1.916-2.354-3.018
		s-1.162-2.282-1.524-3.544C128.31,19.482,128.128,18.181,128.128,16.84z"/>
	<path fill="#FFFFFF" d="M155.951,16.84c0-1.373,0.176-2.695,0.527-3.967c0.351-1.271,0.848-2.458,1.492-3.56
		c0.644-1.102,1.418-2.104,2.322-3.009c0.904-0.904,1.908-1.679,3.009-2.323c1.102-0.644,2.288-1.141,3.561-1.492
		c1.271-0.351,2.594-0.527,3.967-0.527c1.382,0,2.708,0.176,3.979,0.527c1.27,0.351,2.455,0.846,3.556,1.484
		c1.1,0.639,2.099,1.41,2.997,2.314c0.898,0.905,1.667,1.908,2.305,3.009s1.132,2.288,1.482,3.56c0.352,1.272,0.526,2.6,0.526,3.983
		c0,1.373-0.178,2.692-0.534,3.959c-0.355,1.267-0.855,2.45-1.498,3.552c-0.644,1.102-1.417,2.104-2.32,3.009
		c-0.904,0.904-1.906,1.679-3.006,2.322c-1.101,0.644-2.283,1.145-3.548,1.501c-1.266,0.356-2.578,0.534-3.938,0.534
		c-1.362,0-2.674-0.178-3.936-0.534c-1.261-0.356-2.442-0.863-3.543-1.517c-1.102-0.654-2.107-1.437-3.018-2.347
		s-1.689-1.915-2.339-3.017c-0.648-1.102-1.151-2.283-1.508-3.544S155.951,18.192,155.951,16.84z M157.005,16.84
		c0,1.256,0.165,2.472,0.495,3.647c0.329,1.176,0.798,2.274,1.404,3.296c0.606,1.022,1.333,1.956,2.179,2.802
		c0.847,0.846,1.78,1.569,2.802,2.171s2.12,1.069,3.297,1.405c1.176,0.335,2.392,0.503,3.647,0.503c1.276,0,2.503-0.166,3.679-0.495
		c1.176-0.33,2.275-0.796,3.297-1.396c1.021-0.602,1.95-1.322,2.785-2.163c0.836-0.841,1.554-1.772,2.155-2.794
		c0.601-1.021,1.063-2.123,1.389-3.305c0.324-1.181,0.487-2.404,0.487-3.671c0-1.288-0.16-2.525-0.479-3.711
		s-0.774-2.293-1.364-3.32c-0.591-1.027-1.304-1.96-2.14-2.801c-0.835-0.841-1.764-1.559-2.785-2.155
		c-1.021-0.596-2.123-1.056-3.305-1.381c-1.181-0.324-2.421-0.487-3.719-0.487c-1.277,0-2.504,0.165-3.68,0.495
		c-1.176,0.33-2.277,0.798-3.305,1.405c-1.027,0.606-1.961,1.333-2.801,2.179c-0.841,0.846-1.56,1.78-2.155,2.801
		c-0.597,1.022-1.06,2.123-1.389,3.305C157.17,14.35,157.005,15.574,157.005,16.84z"/>
	<path fill="#FFFFFF" d="M190.224,19.698V2.681c0-0.16,0.052-0.292,0.155-0.399s0.237-0.16,0.402-0.16
		c0.196,0,0.328,0.053,0.396,0.16s0.101,0.239,0.101,0.399v16.921c0,0.713,0.042,1.458,0.128,2.234
		c0.085,0.777,0.234,1.512,0.447,2.203c0.362,1.054,0.907,1.995,1.637,2.825c0.73,0.83,1.563,1.535,2.501,2.115
		c0.937,0.58,1.945,1.021,3.026,1.325c1.081,0.303,2.159,0.455,3.235,0.455c1.086,0,2.172-0.149,3.259-0.447
		c1.086-0.298,2.101-0.731,3.043-1.301s1.778-1.27,2.508-2.1s1.271-1.782,1.621-2.857c0.245-0.702,0.405-1.434,0.479-2.194
		s0.112-1.514,0.112-2.259V2.681c0-0.16,0.049-0.292,0.146-0.399c0.098-0.106,0.232-0.16,0.405-0.16
		c0.216,0,0.354,0.051,0.413,0.151c0.06,0.102,0.09,0.237,0.09,0.407v17.017c0,0.734-0.046,1.506-0.137,2.314
		s-0.247,1.575-0.472,2.299c-0.416,1.128-1.029,2.152-1.839,3.072c-0.811,0.921-1.736,1.706-2.775,2.354
		c-1.04,0.649-2.151,1.153-3.335,1.509s-2.356,0.535-3.519,0.535c-1.168,0-2.345-0.174-3.529-0.52
		c-1.184-0.346-2.288-0.84-3.313-1.485c-1.024-0.644-1.938-1.426-2.74-2.347c-0.802-0.92-1.404-1.96-1.808-3.12
		c-0.245-0.734-0.412-1.498-0.502-2.291C190.269,21.227,190.224,20.454,190.224,19.698z"/>
	<path fill="#FFFFFF" d="M219.212,10.279c0-1.042,0.167-1.971,0.503-2.785c0.335-0.814,0.79-1.527,1.364-2.139
		c0.575-0.612,1.245-1.131,2.012-1.557c0.766-0.425,1.58-0.769,2.442-1.029c0.861-0.261,1.748-0.45,2.657-0.567
		c0.91-0.117,1.791-0.175,2.643-0.175c0.926,0,1.849,0.069,2.77,0.208c0.92,0.138,1.816,0.354,2.689,0.646
		c0.872,0.292,1.71,0.665,2.514,1.117c0.804,0.453,1.557,0.987,2.259,1.604l0.144,0.112h-0.016c0.266,0.223,0.521,0.46,0.767,0.71
		c0.244,0.25,0.441,0.545,0.591,0.886l0.016,0.096c0,0.149-0.062,0.277-0.184,0.383c-0.122,0.107-0.269,0.16-0.439,0.16
		c-0.117-0.053-0.205-0.109-0.263-0.167c-0.059-0.058-0.12-0.125-0.184-0.2c-0.617-0.766-1.36-1.431-2.228-1.995
		s-1.793-1.032-2.777-1.405s-1.995-0.649-3.032-0.83c-1.038-0.181-2.03-0.271-2.978-0.271c-0.745,0-1.512,0.056-2.299,0.168
		s-1.562,0.285-2.322,0.52c-0.761,0.234-1.479,0.541-2.155,0.919c-0.676,0.378-1.269,0.834-1.779,1.367
		c-0.512,0.533-0.916,1.148-1.214,1.846s-0.446,1.489-0.446,2.374c0,0.746,0.111,1.407,0.335,1.982
		c0.223,0.576,0.525,1.084,0.909,1.527c0.383,0.442,0.835,0.823,1.355,1.143c0.521,0.32,1.077,0.594,1.668,0.823
		c0.59,0.229,1.208,0.396,1.854,0.498c0.646,0.103,1.278,0.204,1.898,0.303c0.401,0.139,0.782,0.218,1.144,0.238
		c0.361,0.02,0.728,0.076,1.101,0.168c0.73,0.083,1.503,0.191,2.317,0.32c0.814,0.13,1.612,0.298,2.396,0.505
		c0.782,0.207,1.522,0.472,2.22,0.795s1.308,0.731,1.829,1.225s0.938,1.087,1.246,1.781s0.463,1.514,0.463,2.457
		c0,0.894-0.139,1.708-0.415,2.442c-0.277,0.734-0.657,1.386-1.142,1.955s-1.048,1.064-1.691,1.484
		c-0.645,0.421-1.336,0.77-2.075,1.046c-0.74,0.276-1.507,0.481-2.299,0.614c-0.793,0.134-1.578,0.2-2.354,0.2
		c-1.586,0-3.089-0.211-4.51-0.631c-1.421-0.421-2.775-1.105-4.063-2.051h0.016c-0.042-0.021-0.133-0.086-0.271-0.192
		c-0.138-0.106-0.284-0.226-0.438-0.358c-0.154-0.134-0.29-0.277-0.407-0.432s-0.176-0.289-0.176-0.406
		c0-0.149,0.051-0.267,0.152-0.352c0.101-0.085,0.221-0.128,0.358-0.128c0.149,0,0.264,0.026,0.344,0.08s0.162,0.117,0.247,0.191
		h-0.016c0.574,0.563,1.205,1.051,1.892,1.461c0.687,0.409,1.404,0.747,2.155,1.014c0.75,0.266,1.521,0.463,2.314,0.59
		c0.792,0.128,1.582,0.192,2.37,0.192c0.671,0,1.359-0.057,2.067-0.168c0.707-0.111,1.392-0.287,2.051-0.526
		c0.66-0.239,1.285-0.54,1.876-0.901c0.591-0.362,1.104-0.79,1.54-1.285c0.437-0.494,0.782-1.061,1.038-1.699
		c0.255-0.638,0.383-1.346,0.383-2.122c0-0.829-0.141-1.545-0.423-2.146c-0.282-0.602-0.665-1.114-1.149-1.54
		s-1.046-0.773-1.685-1.045s-1.314-0.492-2.027-0.663c-0.714-0.17-1.438-0.313-2.175-0.427s-1.425-0.192-2.064-0.235l-1.833-0.236
		c-0.811-0.216-1.59-0.382-2.337-0.498c-0.747-0.116-1.461-0.302-2.142-0.557c-0.682-0.255-1.319-0.566-1.916-0.934
		c-0.596-0.367-1.114-0.809-1.556-1.325c-0.442-0.516-0.79-1.117-1.046-1.804C219.34,11.964,219.212,11.174,219.212,10.279z"/>
</g>
</svg>
