<?xml version="1.0" encoding="utf-8"?>
<!-- Generator: Adobe Illustrator 17.0.0, SVG Export Plug-In . SVG Version: 6.00 Build 0)  -->
<!DOCTYPE svg PUBLIC "-//W3C//DTD SVG 1.1//EN" "http://www.w3.org/Graphics/SVG/1.1/DTD/svg11.dtd">
<svg version="1.1" id="Layer_1" xmlns="http://www.w3.org/2000/svg" xmlns:xlink="http://www.w3.org/1999/xlink" x="0px" y="0px"
	 width="175px" height="33.728px" viewBox="0 0 175 33.728" enable-background="new 0 0 175 33.728" xml:space="preserve">
<g>
	<path fill="#FFFFFF" d="M7.279,17.818L0.953,9.507c0-0.177,0.096-0.317,0.287-0.419s0.362-0.153,0.512-0.153l5.999,7.329
		c0.054-0.109,0.153-0.354,0.297-0.737c0.143-0.382,0.31-0.839,0.501-1.372c0.191-0.532,0.396-1.116,0.614-1.75
		c0.218-0.635,0.426-1.266,0.625-1.894c0.198-0.627,0.372-1.218,0.522-1.771c0.15-0.553,0.259-1.02,0.328-1.402
		c0.095-0.095,0.201-0.129,0.317-0.102c0.116,0.027,0.226,0.082,0.328,0.164c0.103,0.082,0.188,0.181,0.256,0.297
		c0.068,0.116,0.103,0.215,0.103,0.297c-0.478,1.433-0.88,2.648-1.208,3.644c-0.327,0.997-0.601,1.839-0.819,2.528
		C9.394,14.854,9.22,15.41,9.09,15.833c-0.13,0.423-0.232,0.778-0.307,1.064s-0.14,0.529-0.194,0.727
		c-0.055,0.198-0.113,0.406-0.174,0.625c-0.062,0.218-0.137,0.478-0.226,0.777c-0.089,0.301-0.215,0.696-0.378,1.188
		c-0.164,0.491-0.375,1.109-0.635,1.853c-0.259,0.744-0.58,1.669-0.962,2.774c-0.205,0-0.413,0-0.624,0
		c-0.212,0-0.317-0.103-0.317-0.308L7.279,17.818z"/>
	<path fill="#FFFFFF" d="M18.21,12.639c0.014-0.082,0.058-0.174,0.133-0.276c0.075-0.102,0.17-0.174,0.287-0.215
		c0.116-0.041,0.246-0.023,0.389,0.051c0.144,0.075,0.29,0.242,0.44,0.501c-0.055,1.051-0.12,2.099-0.195,3.143
		s-0.109,2.075-0.102,3.091c0.006,1.017,0.075,2.023,0.205,3.02c0.129,0.996,0.365,1.965,0.706,2.907
		c0.014,0.095-0.021,0.181-0.102,0.256c-0.082,0.074-0.191,0.129-0.328,0.163c-0.137,0.034-0.273,0.045-0.41,0.031
		s-0.246-0.075-0.327-0.185l-0.717-3.419c-0.055,0.178-0.208,0.438-0.46,0.778c-0.253,0.341-0.546,0.686-0.88,1.034
		c-0.334,0.348-0.679,0.654-1.034,0.921c-0.355,0.267-0.662,0.406-0.921,0.42c-0.642,0.041-1.146-0.185-1.515-0.676
		c-0.368-0.491-0.638-1.137-0.809-1.935c-0.171-0.799-0.27-1.689-0.297-2.672s-0.027-1.938,0-2.866s0.062-1.768,0.103-2.518
		s0.041-1.303,0-1.658c0.041-0.109,0.113-0.191,0.215-0.246c0.103-0.055,0.215-0.082,0.338-0.082s0.242,0.027,0.358,0.082
		c0.116,0.055,0.201,0.136,0.256,0.246c0.027,0.464,0.034,1.044,0.021,1.74c-0.014,0.696-0.028,1.437-0.041,2.221
		c-0.014,0.785-0.01,1.573,0.01,2.364c0.021,0.792,0.072,1.512,0.153,2.16c0.082,0.648,0.208,1.188,0.379,1.617
		c0.17,0.43,0.413,0.673,0.727,0.727c0.232,0,0.464-0.074,0.696-0.225c0.232-0.15,0.464-0.345,0.696-0.584
		c0.232-0.238,0.451-0.505,0.655-0.798c0.205-0.294,0.382-0.58,0.532-0.86c0.15-0.279,0.273-0.535,0.369-0.768
		c0.095-0.231,0.15-0.409,0.164-0.532c0.014-0.164,0.034-0.426,0.062-0.788c0.027-0.361,0.051-0.771,0.072-1.229
		c0.021-0.457,0.041-0.945,0.061-1.463c0.021-0.519,0.041-1.006,0.062-1.464c0.021-0.457,0.034-0.867,0.041-1.229
		C18.207,13.066,18.21,12.803,18.21,12.639z"/>
	<path fill="#FFFFFF" d="M20.954,24.533c-0.027-0.272-0.051-0.713-0.071-1.32c-0.021-0.606-0.041-1.303-0.062-2.088
		s-0.038-1.62-0.051-2.508c-0.014-0.887-0.038-1.743-0.072-2.569c-0.034-0.826-0.082-1.593-0.143-2.303
		c-0.062-0.709-0.133-1.276-0.215-1.699c0-0.341,0.105-0.535,0.317-0.583c0.211-0.047,0.454-0.044,0.727,0.01
		c0.123,1.024,0.208,1.952,0.256,2.784c0.048,0.833,0.082,1.573,0.103,2.222c0.02,0.648,0.041,1.208,0.061,1.678
		s0.065,0.85,0.133,1.137c0.164-1.27,0.334-2.348,0.512-3.235c0.177-0.887,0.365-1.614,0.563-2.18
		c0.198-0.566,0.413-0.983,0.645-1.249c0.232-0.266,0.484-0.419,0.757-0.46c0.246-0.027,0.478,0.167,0.696,0.583
		c0.218,0.417,0.42,0.945,0.604,1.586c0.185,0.642,0.348,1.334,0.492,2.078c0.143,0.744,0.256,1.43,0.337,2.057
		c0.464-1.378,0.85-2.47,1.157-3.275c0.307-0.805,0.577-1.416,0.809-1.832s0.447-0.679,0.645-0.789
		c0.198-0.109,0.419-0.157,0.666-0.143c0.327,0.014,0.59,0.153,0.788,0.42c0.198,0.266,0.351,0.621,0.46,1.064
		s0.188,0.955,0.235,1.535c0.048,0.581,0.089,1.191,0.123,1.833c0.034,0.641,0.082,1.293,0.143,1.955
		c0.062,0.662,0.154,1.294,0.276,1.894c0.123,0.602,0.293,1.157,0.512,1.669c0.218,0.512,0.512,0.932,0.88,1.259
		c-0.123,0.246-0.266,0.454-0.43,0.625c-0.164,0.17-0.334,0.201-0.512,0.092c-0.396-0.259-0.713-0.699-0.952-1.32
		s-0.434-1.327-0.583-2.119c-0.15-0.791-0.259-1.613-0.328-2.467c-0.068-0.853-0.13-1.634-0.184-2.344
		c-0.055-0.709-0.113-1.296-0.174-1.76c-0.062-0.464-0.147-0.703-0.256-0.717c-0.396-0.054-0.802,0.566-1.218,1.863
		c-0.417,1.296-0.959,3.221-1.627,5.772c-0.068,0.178-0.15,0.305-0.246,0.379c-0.096,0.075-0.191,0.113-0.287,0.113
		c-0.096,0-0.191-0.031-0.287-0.093c-0.096-0.062-0.178-0.14-0.246-0.235c-0.191-1.037-0.352-2.033-0.481-2.989
		c-0.13-0.955-0.249-1.801-0.358-2.538c-0.109-0.737-0.222-1.331-0.338-1.781c-0.116-0.45-0.243-0.689-0.379-0.716
		c-0.123-0.027-0.242,0.106-0.358,0.399c-0.116,0.293-0.229,0.696-0.337,1.208c-0.109,0.512-0.222,1.119-0.338,1.822
		c-0.116,0.703-0.235,1.457-0.358,2.262c-0.123,0.806-0.252,1.635-0.389,2.487c-0.137,0.854-0.287,1.696-0.451,2.528
		c-0.055,0.109-0.137,0.194-0.246,0.256c-0.109,0.062-0.222,0.093-0.338,0.093c-0.116,0-0.229-0.027-0.338-0.082
		S21.008,24.656,20.954,24.533z"/>
	<path fill="#FFFFFF" d="M34.015,24.533c-0.027-0.272-0.051-0.713-0.071-1.32c-0.021-0.606-0.041-1.303-0.062-2.088
		s-0.038-1.62-0.051-2.508c-0.014-0.887-0.038-1.743-0.072-2.569c-0.034-0.826-0.082-1.593-0.143-2.303
		c-0.062-0.709-0.133-1.276-0.215-1.699c0-0.341,0.105-0.535,0.317-0.583c0.211-0.047,0.454-0.044,0.727,0.01
		c0.123,1.024,0.208,1.952,0.256,2.784c0.048,0.833,0.082,1.573,0.103,2.222c0.02,0.648,0.041,1.208,0.061,1.678
		s0.065,0.85,0.133,1.137c0.164-1.27,0.334-2.348,0.512-3.235c0.177-0.887,0.365-1.614,0.563-2.18
		c0.198-0.566,0.413-0.983,0.645-1.249c0.232-0.266,0.484-0.419,0.757-0.46c0.246-0.027,0.478,0.167,0.696,0.583
		c0.218,0.417,0.42,0.945,0.604,1.586c0.185,0.642,0.348,1.334,0.492,2.078c0.143,0.744,0.256,1.43,0.337,2.057
		c0.464-1.378,0.85-2.47,1.157-3.275c0.307-0.805,0.577-1.416,0.809-1.832s0.447-0.679,0.645-0.789
		c0.198-0.109,0.419-0.157,0.666-0.143c0.327,0.014,0.59,0.153,0.788,0.42c0.198,0.266,0.351,0.621,0.46,1.064
		s0.188,0.955,0.235,1.535c0.048,0.581,0.089,1.191,0.123,1.833c0.034,0.641,0.082,1.293,0.143,1.955
		c0.062,0.662,0.154,1.294,0.276,1.894c0.123,0.602,0.293,1.157,0.512,1.669c0.218,0.512,0.512,0.932,0.88,1.259
		c-0.123,0.246-0.266,0.454-0.43,0.625c-0.164,0.17-0.334,0.201-0.512,0.092c-0.396-0.259-0.713-0.699-0.952-1.32
		s-0.434-1.327-0.583-2.119c-0.15-0.791-0.259-1.613-0.328-2.467c-0.068-0.853-0.13-1.634-0.184-2.344
		c-0.055-0.709-0.113-1.296-0.174-1.76c-0.062-0.464-0.147-0.703-0.256-0.717c-0.396-0.054-0.802,0.566-1.218,1.863
		c-0.417,1.296-0.959,3.221-1.627,5.772c-0.068,0.178-0.15,0.305-0.246,0.379c-0.096,0.075-0.191,0.113-0.287,0.113
		c-0.096,0-0.191-0.031-0.287-0.093c-0.096-0.062-0.178-0.14-0.246-0.235c-0.191-1.037-0.352-2.033-0.481-2.989
		c-0.13-0.955-0.249-1.801-0.358-2.538c-0.109-0.737-0.222-1.331-0.338-1.781c-0.116-0.45-0.243-0.689-0.379-0.716
		c-0.123-0.027-0.242,0.106-0.358,0.399c-0.116,0.293-0.229,0.696-0.337,1.208c-0.109,0.512-0.222,1.119-0.338,1.822
		c-0.116,0.703-0.235,1.457-0.358,2.262c-0.123,0.806-0.252,1.635-0.389,2.487c-0.137,0.854-0.287,1.696-0.451,2.528
		c-0.055,0.109-0.137,0.194-0.246,0.256c-0.109,0.062-0.222,0.093-0.338,0.093c-0.116,0-0.229-0.027-0.338-0.082
		S34.069,24.656,34.015,24.533z"/>
	<path fill="#FFFFFF" d="M50.126,24.738l-4.524-10.297c-0.109-0.164-0.137-0.331-0.082-0.501c0.055-0.171,0.15-0.304,0.287-0.399
		c0.136-0.095,0.297-0.133,0.481-0.113c0.185,0.021,0.352,0.133,0.502,0.338l3.767,9.007l1.781-10.174
		c0.082-0.041,0.181-0.075,0.297-0.102c0.116-0.027,0.232-0.034,0.348-0.021c0.116,0.014,0.221,0.055,0.317,0.123
		c0.096,0.069,0.157,0.178,0.185,0.328c-0.068,0.546-0.171,1.242-0.307,2.088c-0.137,0.846-0.287,1.716-0.451,2.61
		c-0.164,0.895-0.324,1.747-0.481,2.56c-0.157,0.812-0.276,1.457-0.358,1.935c-0.055,0.286-0.123,0.672-0.205,1.156
		s-0.174,1.014-0.276,1.587c-0.102,0.573-0.212,1.17-0.328,1.791s-0.225,1.218-0.327,1.791c-0.103,0.573-0.205,1.096-0.307,1.566
		c-0.103,0.471-0.188,0.85-0.256,1.136c-0.028,0.164-0.11,0.287-0.246,0.369s-0.287,0.115-0.45,0.103
		c-0.164-0.014-0.317-0.068-0.46-0.164c-0.144-0.096-0.222-0.232-0.235-0.409L50.126,24.738z"/>
	<path fill="#FFFFFF" d="M74.652,20.193c-0.396,0.478-0.874,0.976-1.433,1.494c-0.56,0.52-1.16,0.99-1.802,1.413
		s-1.297,0.765-1.965,1.023c-0.669,0.26-1.303,0.379-1.904,0.358s-1.15-0.212-1.648-0.573c-0.499-0.361-0.891-0.966-1.177-1.812
		c-0.177-0.601-0.242-1.304-0.194-2.109c0.048-0.805,0.184-1.654,0.409-2.548c0.226-0.894,0.533-1.802,0.921-2.723
		c0.389-0.921,0.846-1.798,1.372-2.631c0.525-0.832,1.112-1.6,1.761-2.303c0.648-0.703,1.337-1.276,2.068-1.719
		c0.729-0.443,1.498-0.737,2.303-0.88c0.805-0.144,1.631-0.072,2.477,0.215c0.109,0,0.177,0.024,0.205,0.072
		c0.027,0.048,0.034,0.112,0.021,0.194c-0.014,0.082-0.038,0.184-0.072,0.307c-0.034,0.123-0.051,0.266-0.051,0.43
		c-0.997-0.136-1.945-0.044-2.846,0.276c-0.901,0.321-1.737,0.802-2.508,1.443c-0.771,0.642-1.464,1.406-2.078,2.293
		c-0.614,0.887-1.129,1.829-1.546,2.825c-0.417,0.997-0.72,2.01-0.911,3.04c-0.191,1.03-0.252,2.01-0.184,2.938
		c0.055,0.792,0.287,1.328,0.696,1.607c0.409,0.279,0.911,0.375,1.504,0.286c0.594-0.088,1.239-0.327,1.935-0.716
		c0.696-0.39,1.368-0.867,2.017-1.434c0.648-0.566,1.229-1.184,1.74-1.853s0.877-1.323,1.095-1.965h-3.685
		c-0.205-0.287-0.225-0.505-0.062-0.655c0.164-0.15,0.447-0.256,0.85-0.317c0.402-0.062,0.884-0.092,1.443-0.092
		s1.133,0.014,1.72,0.041c0.177-0.041,0.423-0.126,0.737-0.256s0.614-0.235,0.901-0.317s0.515-0.103,0.686-0.062
		c0.17,0.041,0.194,0.205,0.071,0.491c-0.014,0.028-0.061,0.072-0.143,0.133s-0.174,0.123-0.276,0.184s-0.198,0.12-0.287,0.174
		c-0.089,0.055-0.147,0.089-0.174,0.102c-0.328,0.642-0.56,1.392-0.696,2.252c-0.137,0.859-0.212,1.754-0.225,2.682
		c-0.014,0.928,0.017,1.85,0.092,2.764c0.075,0.914,0.167,1.74,0.276,2.477l-0.778,0.267c-0.136-0.205-0.249-0.601-0.337-1.188
		c-0.089-0.587-0.161-1.235-0.215-1.944c-0.055-0.71-0.089-1.402-0.102-2.078C74.639,21.125,74.639,20.59,74.652,20.193z"/>
	<path fill="#FFFFFF" d="M78.521,24.329c-0.041-1.884-0.075-3.48-0.103-4.791c-0.027-1.31-0.048-2.395-0.062-3.255
		s-0.024-1.532-0.031-2.017c-0.007-0.484-0.014-0.842-0.021-1.075c-0.007-0.232-0.01-0.372-0.01-0.419s0-0.079,0-0.092
		c0.013-0.123,0.075-0.225,0.184-0.307c0.109-0.082,0.229-0.133,0.358-0.153c0.129-0.021,0.256-0.003,0.378,0.051
		c0.123,0.055,0.211,0.143,0.266,0.266l0.062,4.708c0.205-0.942,0.536-1.727,0.993-2.354c0.457-0.627,0.972-1.123,1.545-1.484
		c0.573-0.362,1.17-0.597,1.792-0.707c0.621-0.109,1.197-0.116,1.729-0.021c0.177,0.041,0.311,0.116,0.399,0.225
		c0.088,0.109,0.136,0.229,0.143,0.358c0.007,0.13-0.027,0.253-0.102,0.369c-0.075,0.116-0.174,0.201-0.297,0.256
		c-0.614-0.041-1.191,0.01-1.73,0.153c-0.539,0.144-1.031,0.355-1.474,0.635s-0.833,0.611-1.167,0.993
		c-0.334,0.382-0.597,0.785-0.788,1.208c-0.287,0.614-0.481,1.259-0.583,1.935c-0.102,0.676-0.164,1.348-0.184,2.017
		s-0.021,1.304,0,1.904s0.024,1.126,0.01,1.576c-0.014,0.15-0.079,0.263-0.194,0.338c-0.116,0.074-0.246,0.115-0.389,0.122
		c-0.143,0.007-0.287-0.027-0.43-0.102C78.675,24.592,78.576,24.479,78.521,24.329z"/>
	<path fill="#FFFFFF" d="M86.812,7.971c0-0.177,0.062-0.297,0.185-0.358c0.123-0.062,0.259-0.092,0.409-0.092
		c0.3,0,0.488,0.099,0.563,0.297s0.113,0.426,0.113,0.686C88,8.667,87.89,8.783,87.754,8.852c-0.137,0.068-0.276,0.082-0.419,0.041
		c-0.144-0.041-0.267-0.136-0.369-0.287C86.863,8.456,86.812,8.244,86.812,7.971z M87.058,12.148
		c0.082-0.041,0.177-0.075,0.286-0.103c0.109-0.027,0.215-0.041,0.317-0.041c0.103,0,0.201,0.02,0.297,0.061
		c0.096,0.041,0.17,0.116,0.225,0.226c0,0.887,0.01,1.846,0.031,2.876c0.02,1.031,0.047,2.075,0.082,3.132
		c0.033,1.058,0.064,2.099,0.092,3.122s0.055,1.973,0.082,2.846c0.014,0.204-0.041,0.361-0.164,0.471s-0.256,0.164-0.399,0.164
		c-0.143,0-0.276-0.052-0.399-0.154c-0.123-0.102-0.184-0.262-0.184-0.48L87.058,12.148z"/>
	<path fill="#FFFFFF" d="M89.699,7.644c0.082-0.054,0.167-0.112,0.256-0.174c0.088-0.062,0.181-0.103,0.276-0.123
		c0.095-0.021,0.181-0.01,0.256,0.031c0.074,0.041,0.14,0.13,0.194,0.266l0.123,16.889c-0.068,0.137-0.157,0.229-0.267,0.276
		s-0.219,0.062-0.327,0.041c-0.109-0.021-0.208-0.064-0.297-0.133s-0.147-0.15-0.174-0.246L89.699,7.644z"/>
	<path fill="#FFFFFF" d="M92.299,7.644c0.082-0.054,0.167-0.112,0.256-0.174c0.088-0.062,0.181-0.103,0.276-0.123
		c0.095-0.021,0.181-0.01,0.256,0.031c0.074,0.041,0.14,0.13,0.194,0.266l0.123,16.889c-0.068,0.137-0.157,0.229-0.267,0.276
		s-0.219,0.062-0.327,0.041c-0.109-0.021-0.208-0.064-0.297-0.133s-0.147-0.15-0.174-0.246L92.299,7.644z"/>
	<path fill="#FFFFFF" d="M95.104,23.244c0.26,0.204,0.577,0.313,0.952,0.327s0.771-0.037,1.188-0.153s0.839-0.287,1.27-0.512
		c0.43-0.226,0.825-0.475,1.188-0.747c0.361-0.273,0.675-0.563,0.941-0.87c0.266-0.308,0.446-0.601,0.542-0.881
		c0.096-0.279,0.089-0.535-0.021-0.768c-0.109-0.231-0.354-0.416-0.736-0.553c-0.696,0.164-1.393,0.294-2.088,0.389
		c-0.696,0.096-1.321,0.096-1.874,0c-0.553-0.095-1-0.32-1.341-0.675c-0.341-0.355-0.498-0.901-0.471-1.638
		c0.041-0.709,0.235-1.375,0.584-1.996c0.348-0.621,0.791-1.149,1.33-1.586c0.539-0.437,1.14-0.771,1.802-1.003
		c0.662-0.231,1.334-0.327,2.017-0.286c0.136,0.014,0.263,0.024,0.379,0.03c0.115,0.007,0.222,0.031,0.317,0.072
		c0.095,0.041,0.167,0.103,0.215,0.184c0.048,0.082,0.064,0.205,0.051,0.369c-0.014,0.205-0.089,0.369-0.225,0.491
		c-0.137,0.123-0.321,0.171-0.553,0.144c-0.806-0.164-1.529-0.129-2.171,0.103s-1.174,0.556-1.597,0.972
		c-0.423,0.417-0.724,0.884-0.9,1.402c-0.178,0.519-0.205,0.99-0.082,1.413c0.259,0.491,0.597,0.802,1.014,0.932
		c0.416,0.13,0.859,0.174,1.33,0.133s0.952-0.112,1.443-0.215s0.935-0.137,1.331-0.103c0.396,0.034,0.723,0.185,0.982,0.45
		c0.259,0.267,0.402,0.755,0.43,1.464c-0.014,0.45-0.163,0.884-0.45,1.3c-0.286,0.417-0.651,0.806-1.095,1.167
		c-0.444,0.362-0.938,0.689-1.484,0.983c-0.546,0.293-1.089,0.535-1.628,0.727s-1.044,0.32-1.515,0.389s-0.85,0.062-1.137-0.021
		c-0.313-0.272-0.478-0.542-0.491-0.809S94.722,23.394,95.104,23.244z"/>
	<path fill="#FFFFFF" d="M118.913,18.412c-0.506,0.532-1.007,0.918-1.505,1.157c-0.499,0.238-0.952,0.375-1.361,0.409
		c-0.41,0.034-0.761-0.017-1.055-0.153s-0.48-0.314-0.563-0.532c-0.164-0.396-0.205-0.781-0.123-1.157
		c0.082-0.375,0.242-0.723,0.481-1.044c0.238-0.32,0.535-0.594,0.89-0.819c0.355-0.225,0.728-0.385,1.116-0.481
		c0.389-0.095,0.774-0.105,1.156-0.031c0.382,0.075,0.724,0.256,1.024,0.542l0.122-2.989c0-0.177,0.052-0.317,0.154-0.42
		c0.102-0.102,0.222-0.164,0.357-0.184c0.137-0.021,0.273,0,0.41,0.062c0.136,0.062,0.238,0.161,0.307,0.297l-0.266,3.173
		l2.047-1.31c0.109,0.068,0.211,0.147,0.307,0.235c0.096,0.089,0.164,0.191,0.205,0.307c0.041,0.116,0.044,0.249,0.01,0.399
		s-0.119,0.314-0.256,0.491l-2.211,1.29l0.021,3.479c0,0.273-0.064,0.481-0.194,0.625s-0.273,0.225-0.43,0.245
		c-0.157,0.021-0.304-0.017-0.44-0.112s-0.204-0.252-0.204-0.471V18.412z M118.381,17.347c-0.232-0.272-0.495-0.43-0.789-0.471
		c-0.293-0.041-0.587-0.01-0.88,0.092c-0.294,0.102-0.557,0.252-0.788,0.45c-0.232,0.199-0.406,0.403-0.522,0.614
		c-0.115,0.212-0.143,0.403-0.081,0.573c0.061,0.171,0.242,0.284,0.542,0.338c0.3-0.013,0.61-0.095,0.932-0.245
		c0.32-0.15,0.607-0.317,0.859-0.502c0.253-0.184,0.447-0.361,0.584-0.532C118.373,17.495,118.422,17.388,118.381,17.347z"/>
	<path fill="#FFFFFF" d="M145.73,9.589c-0.055-0.027-0.14,0.144-0.256,0.512c-0.116,0.369-0.263,0.847-0.439,1.433
		c-0.178,0.587-0.372,1.249-0.584,1.986s-0.437,1.467-0.676,2.19c-0.238,0.724-0.48,1.399-0.727,2.027
		c-0.245,0.627-0.488,1.125-0.727,1.494c-0.239,0.368-0.464,0.57-0.676,0.604c-0.212,0.034-0.406-0.181-0.583-0.645
		c-0.219-0.328-0.465-0.778-0.737-1.352c-0.273-0.573-0.563-1.194-0.87-1.863c-0.307-0.668-0.628-1.361-0.962-2.078
		c-0.335-0.717-0.673-1.382-1.014-1.996s-0.676-1.15-1.003-1.607s-0.642-0.774-0.941-0.952c0,1.064,0.062,2.231,0.184,3.501
		c0.123,1.269,0.256,2.556,0.399,3.859c0.144,1.304,0.276,2.59,0.399,3.858c0.123,1.27,0.185,2.443,0.185,3.521
		c0.067,0.137,0.071,0.273,0.01,0.409c-0.062,0.137-0.153,0.239-0.276,0.308s-0.266,0.082-0.43,0.041s-0.314-0.164-0.45-0.369
		c-0.191-1.364-0.328-2.756-0.41-4.176c-0.081-1.419-0.163-2.846-0.245-4.279s-0.182-2.859-0.297-4.279
		c-0.116-1.419-0.29-2.818-0.522-4.196c-0.014-0.273,0.034-0.443,0.144-0.512c0.109-0.068,0.246-0.102,0.409-0.102
		c0.614,0.177,1.167,0.501,1.658,0.972c0.491,0.471,0.938,1.024,1.341,1.658c0.402,0.635,0.771,1.328,1.105,2.078
		c0.335,0.75,0.666,1.498,0.993,2.242c0.328,0.744,0.655,1.454,0.982,2.129c0.328,0.676,0.689,1.259,1.085,1.75
		c0.055,0,0.106-0.023,0.154-0.071c0.047-0.048,0.112-0.177,0.194-0.389c0.082-0.211,0.197-0.536,0.348-0.973
		c0.15-0.437,0.352-1.044,0.604-1.822c0.252-0.778,0.569-1.757,0.951-2.938c0.383-1.18,0.847-2.617,1.393-4.309
		c0.027-0.082,0.096-0.154,0.205-0.215c0.108-0.061,0.228-0.092,0.357-0.092s0.249,0.044,0.358,0.133
		c0.109,0.089,0.185,0.243,0.226,0.461c0.136,1.255,0.263,2.583,0.379,3.981c0.115,1.399,0.242,2.829,0.379,4.289
		c0.136,1.46,0.293,2.938,0.471,4.433c0.177,1.494,0.396,2.965,0.654,4.411c-0.027,0.191-0.089,0.324-0.184,0.399
		c-0.096,0.075-0.212,0.105-0.349,0.092c-0.136-0.014-0.283-0.058-0.439-0.133c-0.157-0.075-0.304-0.167-0.44-0.276L145.73,9.589z"
		/>
	<path fill="#FFFFFF" d="M151.832,24.635c-0.546-0.068-0.993-0.286-1.341-0.655c-0.349-0.368-0.625-0.818-0.829-1.351
		c-0.205-0.532-0.338-1.116-0.399-1.751c-0.062-0.634-0.079-1.259-0.052-1.873c0.041-0.941,0.215-1.842,0.522-2.702
		c0.307-0.86,0.688-1.607,1.146-2.242c0.457-0.635,0.962-1.126,1.515-1.474c0.553-0.348,1.096-0.481,1.628-0.399
		c0.56,0.082,1.013,0.348,1.361,0.798c0.348,0.45,0.617,1.003,0.809,1.658c0.19,0.655,0.307,1.369,0.348,2.139
		c0.041,0.771,0.034,1.512-0.021,2.221c-0.068,0.806-0.245,1.556-0.532,2.252c-0.286,0.696-0.645,1.297-1.074,1.802
		c-0.431,0.505-0.915,0.897-1.454,1.177C152.92,24.516,152.377,24.649,151.832,24.635z M153.817,13.356
		c-0.45-0.055-0.87,0.085-1.259,0.419c-0.389,0.334-0.737,0.778-1.044,1.331c-0.308,0.553-0.563,1.181-0.768,1.884
		c-0.205,0.703-0.342,1.395-0.41,2.078c-0.055,0.491-0.075,0.996-0.062,1.515c0.014,0.52,0.079,0.99,0.195,1.413
		c0.115,0.423,0.3,0.768,0.553,1.034c0.252,0.266,0.59,0.398,1.013,0.398c0.341,0.014,0.699-0.103,1.075-0.348
		c0.375-0.246,0.727-0.576,1.055-0.993c0.327-0.416,0.617-0.891,0.869-1.423c0.253-0.532,0.42-1.078,0.502-1.638
		c0.096-0.587,0.119-1.19,0.071-1.812s-0.15-1.198-0.307-1.73c-0.157-0.532-0.361-0.993-0.614-1.382S154.146,13.465,153.817,13.356z
		"/>
	<path fill="#FFFFFF" d="M157.502,24.329c-0.041-1.884-0.075-3.48-0.103-4.791c-0.027-1.31-0.048-2.395-0.062-3.255
		s-0.023-1.532-0.03-2.017c-0.007-0.484-0.014-0.842-0.021-1.075c-0.007-0.232-0.011-0.372-0.011-0.419s0-0.079,0-0.092
		c0.014-0.123,0.075-0.225,0.185-0.307c0.109-0.082,0.229-0.133,0.358-0.153c0.129-0.021,0.256-0.003,0.379,0.051
		c0.122,0.055,0.211,0.143,0.266,0.266l0.062,4.708c0.205-0.942,0.535-1.727,0.993-2.354c0.457-0.627,0.973-1.123,1.545-1.484
		c0.573-0.362,1.171-0.597,1.792-0.707c0.621-0.109,1.197-0.116,1.729-0.021c0.178,0.041,0.311,0.116,0.399,0.225
		c0.089,0.109,0.136,0.229,0.144,0.358c0.007,0.13-0.027,0.253-0.103,0.369c-0.075,0.116-0.174,0.201-0.297,0.256
		c-0.614-0.041-1.191,0.01-1.729,0.153c-0.54,0.144-1.031,0.355-1.475,0.635s-0.832,0.611-1.167,0.993
		c-0.334,0.382-0.597,0.785-0.788,1.208c-0.286,0.614-0.48,1.259-0.583,1.935s-0.164,1.348-0.185,2.017s-0.021,1.304,0,1.904
		s0.023,1.126,0.011,1.576c-0.015,0.15-0.079,0.263-0.195,0.338c-0.116,0.074-0.245,0.115-0.389,0.122s-0.286-0.027-0.43-0.102
		C157.655,24.592,157.557,24.479,157.502,24.329z"/>
	<path fill="#FFFFFF" d="M165.589,19.252c-0.096,0.082-0.263,0.112-0.502,0.092c-0.238-0.021-0.457-0.071-0.655-0.153
		c-0.197-0.082-0.33-0.194-0.398-0.338s0.014-0.311,0.245-0.502c0.096-0.081,0.201-0.14,0.317-0.174s0.232-0.068,0.348-0.103
		c0.116-0.033,0.212-0.085,0.287-0.153s0.119-0.177,0.133-0.327c0.014-0.614,0.064-1.242,0.153-1.884
		c0.089-0.641,0.256-1.214,0.502-1.72c0.246-0.504,0.597-0.907,1.055-1.208c0.457-0.3,1.061-0.417,1.812-0.348
		c0.272,0,0.58,0.065,0.921,0.194c0.341,0.13,0.669,0.3,0.982,0.512c0.314,0.212,0.587,0.464,0.819,0.758
		c0.231,0.293,0.375,0.611,0.43,0.952c0.096,0.137,0.041,0.307-0.163,0.512c-0.205,0.205-0.492,0.433-0.86,0.686
		c-0.368,0.253-0.785,0.509-1.249,0.768c-0.464,0.26-0.911,0.505-1.341,0.737c-0.43,0.232-0.809,0.437-1.136,0.614
		c-0.328,0.178-0.539,0.3-0.635,0.368c0.082,0.532,0.17,1.092,0.266,1.679s0.232,1.126,0.41,1.617
		c0.177,0.491,0.398,0.897,0.665,1.218c0.267,0.321,0.604,0.481,1.014,0.481c0.6,0.041,1.115-0.048,1.545-0.266
		c0.431-0.219,0.788-0.505,1.075-0.86c0.286-0.354,0.515-0.743,0.686-1.167c0.171-0.423,0.3-0.825,0.39-1.208
		c0.088-0.382,0.149-0.706,0.184-0.972c0.034-0.267,0.064-0.413,0.093-0.44c0.149-0.082,0.32-0.085,0.512-0.011
		c0.19,0.075,0.3,0.276,0.327,0.604c0.014,0.532-0.103,1.14-0.348,1.822c-0.246,0.683-0.584,1.31-1.014,1.883
		s-0.941,1.034-1.535,1.382c-0.594,0.349-1.226,0.468-1.894,0.358c-0.696-0.014-1.249-0.215-1.658-0.604
		c-0.41-0.39-0.734-0.86-0.973-1.413c-0.239-0.553-0.413-1.136-0.522-1.75S165.671,19.729,165.589,19.252z M170.952,14.85
		c-0.437-0.6-0.88-0.982-1.33-1.146c-0.451-0.164-0.915-0.211-1.393-0.143c-0.286,0.041-0.539,0.174-0.758,0.399
		c-0.218,0.225-0.396,0.512-0.532,0.859c-0.136,0.348-0.231,0.737-0.286,1.167c-0.055,0.43-0.062,0.87-0.021,1.321L170.952,14.85z"
		/>
</g>
</svg>
